<svg width="10" height="8" viewBox="0 0 10 8" fill="none" xmlns="http://www.w3.org/2000/svg">
<path d="M1 3.56243C0.758338 3.56243 0.562432 3.75834 0.562432 4C0.562432 4.24166 0.758338 4.43757 1 4.43757V3.56243ZM9.68602 4.30941C9.8569 4.13853 9.8569 3.86147 9.68602 3.69059L6.90136 0.90593C6.73047 0.735049 6.45342 0.735049 6.28254 0.90593C6.11166 1.07681 6.11166 1.35386 6.28254 1.52474L8.7578 4L6.28254 6.47526C6.11166 6.64614 6.11166 6.92319 6.28254 7.09407C6.45342 7.26495 6.73047 7.26495 6.90136 7.09407L9.68602 4.30941ZM1 4.43757H9.37661V3.56243L1 3.56243V4.43757Z" fill="#171718"/>
</svg>
