<svg width="24" height="24" viewBox="0 0 24 24" fill="none" xmlns="http://www.w3.org/2000/svg">
<g clip-path="url(#clip0)">
<path d="M5.367 7.50049H0V24.0005H5.367V7.50049Z" fill="#171718"/>
<path d="M19.986 7.69399C19.929 7.67599 19.875 7.65649 19.815 7.63999C19.743 7.62349 19.671 7.60999 19.5975 7.59799C19.3125 7.54099 19.0005 7.50049 18.6345 7.50049C15.5055 7.50049 13.521 9.77599 12.867 10.655V7.50049H7.5V24.0005H12.867V15.0005C12.867 15.0005 16.923 9.35149 18.6345 13.5005C18.6345 17.204 18.6345 24.0005 18.6345 24.0005H24V12.866C24 10.373 22.2915 8.29549 19.986 7.69399Z" fill="#171718"/>
<path d="M2.625 5.25C4.07475 5.25 5.25 4.07475 5.25 2.625C5.25 1.17525 4.07475 0 2.625 0C1.17525 0 0 1.17525 0 2.625C0 4.07475 1.17525 5.25 2.625 5.25Z" fill="#171718"/>
</g>
<defs>
<clipPath id="clip0">
<rect width="24" height="24" fill="white"/>
</clipPath>
</defs>
</svg>
